<?xml version="1.0" encoding="UTF-8" standalone="no"?>
<svg width="1600" height="1600" viewBox="0 0 1600 1600" xmlns="http://www.w3.org/2000/svg" role="img" aria-label="Stepwords Square Ad - Full Puzzle">
  <defs>
    <linearGradient id="bg" x1="0" y1="0" x2="0" y2="1">
      <stop offset="0%" stop-color="#0b0f14"/>
      <stop offset="100%" stop-color="#000000"/>
    </linearGradient>
    <filter id="tileShadow" x="-50%" y="-50%" width="200%" height="200%">
      <feDropShadow dx="0" dy="5" stdDeviation="10" flood-color="#000000" flood-opacity="0.35"/>
    </filter>
  </defs>

  <rect x="0" y="0" width="1600" height="1600" fill="url(#bg)"/>

  <!-- Title + Subtitle -->
  <g font-family="ui-sans-serif, system-ui, -apple-system, Segoe UI, Roboto, Helvetica, Arial" text-anchor="middle">
    <text x="800" y="160" font-size="128" font-weight="800" fill="#ffffff">Stepword Puzzles</text>
    <text x="800" y="340" font-size="56" font-weight="600" fill="#9ca3af">Every word is an anagram of the previous word, plus one letter.</text>
    <text x="800" y="404" font-size="56" font-weight="600" fill="#9ca3af">Each answer has a crossword-style clue!</text>
  </g>

  <!-- Example Puzzle: POSTER → SPORTED → STEPWORD -->
  <!-- Layout parameters -->
  <!-- TILE: 140, GAP_X: 16 -->
  <!-- Row Y tops: 520, 700, 880 -->
  <!-- Center X: 800 -->
  <!-- StartX per row (centered): 
       6 letters: width 920 => startX 340
       7 letters: width 1076 => startX 262
       8 letters: width 1232 => startX 184
  -->
  <g filter="url(#tileShadow)" font-family="ui-sans-serif, system-ui, -apple-system, Segoe UI, Roboto, Helvetica, Arial" text-anchor="middle" dominant-baseline="central" alignment-baseline="central" font-weight="900">
    <!-- Row 0: POSTER -->
    <g>
      <rect x="340" y="520" width="140" height="140" rx="24" fill="#16a34a" stroke="#15803d" stroke-width="4"/>
      <text x="410" y="590" font-size="108" fill="#ffffff">P</text>
      <rect x="496" y="520" width="140" height="140" rx="24" fill="#16a34a" stroke="#15803d" stroke-width="4"/>
      <text x="566" y="590" font-size="108" fill="#ffffff">O</text>
      <rect x="652" y="520" width="140" height="140" rx="24" fill="#16a34a" stroke="#15803d" stroke-width="4"/>
      <text x="722" y="590" font-size="108" fill="#ffffff">S</text>
      <rect x="808" y="520" width="140" height="140" rx="24" fill="#16a34a" stroke="#15803d" stroke-width="4"/>
      <text x="878" y="590" font-size="108" fill="#ffffff">T</text>
      <rect x="964" y="520" width="140" height="140" rx="24" fill="#16a34a" stroke="#15803d" stroke-width="4"/>
      <text x="1034" y="590" font-size="108" fill="#ffffff">E</text>
      <rect x="1120" y="520" width="140" height="140" rx="24" fill="#16a34a" stroke="#15803d" stroke-width="4"/>
      <text x="1190" y="590" font-size="108" fill="#ffffff">R</text>
    </g>
    <!-- Row 1: SPORTED (step letter index 6: D) -->
    <g>
      <rect x="262" y="700" width="140" height="140" rx="24" fill="#16a34a" stroke="#15803d" stroke-width="4"/>
      <text x="332" y="770" font-size="108" fill="#ffffff">S</text>
      <rect x="418" y="700" width="140" height="140" rx="24" fill="#16a34a" stroke="#15803d" stroke-width="4"/>
      <text x="488" y="770" font-size="108" fill="#ffffff">P</text>
      <rect x="574" y="700" width="140" height="140" rx="24" fill="#16a34a" stroke="#15803d" stroke-width="4"/>
      <text x="644" y="770" font-size="108" fill="#ffffff">O</text>
      <rect x="730" y="700" width="140" height="140" rx="24" fill="#16a34a" stroke="#15803d" stroke-width="4"/>
      <text x="800" y="770" font-size="108" fill="#ffffff">R</text>
      <rect x="886" y="700" width="140" height="140" rx="24" fill="#16a34a" stroke="#15803d" stroke-width="4"/>
      <text x="956" y="770" font-size="108" fill="#ffffff">T</text>
      <rect x="1042" y="700" width="140" height="140" rx="24" fill="#16a34a" stroke="#15803d" stroke-width="4"/>
      <text x="1112" y="770" font-size="108" fill="#ffffff">E</text>
      <rect x="1198" y="700" width="140" height="140" rx="24" fill="#16a34a" stroke="#15803d" stroke-width="4"/>
      <text x="1268" y="770" font-size="108" fill="#ffffff">D</text>
      <text x="1332" y="834" font-size="28" font-weight="700" fill="#ffffff" text-anchor="end" dominant-baseline="alphabetic">🪜</text>
    </g>
    <!-- Row 2: STEPWORD (step letter index 4: W) -->
    <g>
      <rect x="184" y="880" width="140" height="140" rx="24" fill="#16a34a" stroke="#15803d" stroke-width="4"/>
      <text x="254" y="950" font-size="108" fill="#ffffff">S</text>
      <rect x="340" y="880" width="140" height="140" rx="24" fill="#16a34a" stroke="#15803d" stroke-width="4"/>
      <text x="410" y="950" font-size="108" fill="#ffffff">T</text>
      <rect x="496" y="880" width="140" height="140" rx="24" fill="#16a34a" stroke="#15803d" stroke-width="4"/>
      <text x="566" y="950" font-size="108" fill="#ffffff">E</text>
      <rect x="652" y="880" width="140" height="140" rx="24" fill="#16a34a" stroke="#15803d" stroke-width="4"/>
      <text x="722" y="950" font-size="108" fill="#ffffff">P</text>
      <rect x="808" y="880" width="140" height="140" rx="24" fill="#16a34a" stroke="#15803d" stroke-width="4"/>
      <text x="878" y="950" font-size="108" fill="#ffffff">W</text>
      <text x="942" y="1014" font-size="28" font-weight="700" fill="#ffffff" text-anchor="end" dominant-baseline="alphabetic">🪜</text>
      <rect x="964" y="880" width="140" height="140" rx="24" fill="#16a34a" stroke="#15803d" stroke-width="4"/>
      <text x="1034" y="950" font-size="108" fill="#ffffff">O</text>
      <rect x="1120" y="880" width="140" height="140" rx="24" fill="#16a34a" stroke="#15803d" stroke-width="4"/>
      <text x="1190" y="950" font-size="108" fill="#ffffff">R</text>
      <rect x="1276" y="880" width="140" height="140" rx="24" fill="#16a34a" stroke="#15803d" stroke-width="4"/>
      <text x="1346" y="950" font-size="108" fill="#ffffff">D</text>
    </g>
  </g>

  <!-- Tagline -->
  <g font-family="ui-sans-serif, system-ui, -apple-system, Segoe UI, Roboto, Helvetica, Arial" text-anchor="middle">
    <text x="800" y="1200" font-size="64" font-weight="700" fill="#ffffff">New daily puzzles every night!</text>
  </g>

  <!-- URL -->
  <g font-family="ui-sans-serif, system-ui, -apple-system, Segoe UI, Roboto, Helvetica, Arial" text-anchor="middle">
    <text x="800" y="1400" font-size="72" font-weight="700" fill="#38bdf8">stepwords.xyz</text>
  </g>
</svg>


